inDegrees=yes
name=ik_lifting_orientations
DataType=double
version=3
OpenSimVersion=4.5-2024-01-10-34fd6af
endheader
time	pelvis_tilt	pelvis_list	pelvis_rotation	pelvis_tx	pelvis_ty	pelvis_tz	hip_flexion_r	hip_adduction_r	hip_rotation_r	knee_angle_r	knee_angle_r_beta	ankle_angle_r	subtalar_angle_r	mtp_angle_r	hip_flexion_l	hip_adduction_l	hip_rotation_l	knee_angle_l	knee_angle_l_beta	ankle_angle_l	subtalar_angle_l	mtp_angle_l	lumbar_extension	lumbar_bending	lumbar_rotation	arm_flex_r	arm_add_r	arm_rot_r	elbow_flex_r	pro_sup_r	wrist_flex_r	wrist_dev_r	arm_flex_l	arm_add_l	arm_rot_l	elbow_flex_l	pro_sup_l	wrist_flex_l	wrist_dev_l
0.02	-0.0004272400769728772	-0.001844195715030589	-89.65943581472575	0	0.9399999998679526	0	46.29757351184831	-10.50241061090051	0	60.49273964501871	1.055797480357282	-5.012301810544908	0	0	46.29757351184831	-10.50241061090051	0	60.49273964501871	1.055797480357282	-5.012301810544908	0	0	-0.003708605373647545	0.003314916251908664	0.005437191495202567	-0.2348608539090646	-0.05702792785250421	-0.002444603099575053	0.4945626080975228	2.005197323761143	0	0	0	-10.88245906063653	0	88.06718799385484	2.005197323761143	0	0
0.03	-0.002991064373914339	-0.01111781155658468	-89.65726404833414	0	0.9399999998679526	0	46.29725302672286	-10.50197587975418	0	60.49264439170283	1.055795817873297	-5.012287919852842	0	0	46.29725302672286	-10.50197587975418	0	60.49264439170283	1.055795817873297	-5.012287919852842	0	0	-0.01857426983649084	0.003587363665802568	0.00573338523921024	-0.1704900569207677	0.3087741400528668	0.2378651587570615	1.203751232158724	2.004852983586079	0	0	0	-10.88297947120647	0	88.06751986307496	2.004852983586079	0	0
0.04	-0.01142486521982401	-0.003120148725930422	-89.64873311309523	0	0.9399999998679526	0	46.26901978554472	-10.46785676024831	0	60.4841739750886	1.055647981214363	-5.011246334400075	0	0	46.26901978554472	-10.46785676024831	0	60.4841739750886	1.055647981214363	-5.011246334400075	0	0	0.008879922619642726	0.00498052204475872	-0.0003662796104266688	-0.1840115519867087	0.3235927292015468	0.232271135108974	1.194728225972435	1.974073155699763	0	0	0	-10.92990086810761	0	88.09718504030386	1.974073155699763	0	0
0.05	0.9116826212723503	-0.1520056793802334	-90.27532130088697	0	0.9399999998679526	0	46.25880567149296	-10.45895139232744	0	60.48028154880802	1.055580045559875	-5.010991286913573	0	0	46.25880567149296	-10.45895139232744	0	60.48028154880802	1.055580045559875	-5.010991286913573	0	0	-0.1599844556454506	-0.9116184262995622	0.630694462361132	-0.1806540779768349	0.557300183862013	0.5618232477857957	2.382778994364294	1.961865035180722	0	0	0	-10.94993732031125	0	88.10895123824045	1.961865035180722	0	0
0.06	-0.0002540459139764717	-0.001489276941288207	-89.65234533431799	0	0.9399999998679526	0	46.25840869234085	-10.45846002724418	0	60.48015994882279	1.055577923239763	-5.010976021188513	0	0	46.25840869234085	-10.45846002724418	0	60.48015994882279	1.055577923239763	-5.010976021188513	0	0	-0.003838577995501277	-0.0003806589572810749	-0.004345248673368624	-0.2797927540544221	0.9619706884950548	0.4701528541130741	2.491822030676666	1.961430629095811	0	0	0	-10.95060284719308	0	88.10936991302454	1.961430629095811	0	0
0.07000000000000001	-0.002642740510621713	-0.005120831974265757	-89.66056542691939	0	0.9399999998679526	0	46.25810151579221	-10.45806842134644	0	60.48006812215745	1.055576320562112	-5.01096378890097	0	0	46.25810151579221	-10.45806842134644	0	60.48006812215745	1.055576320562112	-5.01096378890097	0	0	-0.01047608144987393	-0.003336023484146315	0.01064393363770271	-0.3226477701743584	1.051883077429467	1.258250814324008	2.706582484267545	1.961097619887792	0	0	0	-10.95110899657101	0	88.10969086232727	1.961097619887792	0	0
0.08	0.9043383933323933	-0.1784165090616974	-90.28464888663157	0	0.9399999998679526	0	46.25779055266685	-10.45767556559412	0	60.47997452763506	1.055574687029534	-5.010951540792218	0	0	46.25779055266685	-10.45767556559412	0	60.47997452763506	1.055574687029534	-5.010951540792218	0	0	-0.182395858835505	-0.8946319470086952	0.6165927183584801	-0.3953985958667695	1.361451807174419	1.269525959928739	3.121519426969506	1.960759599092576	0	0	0	-10.9516239233749	0	88.11001664187738	1.960759599092576	0	0
0.09	0.907132738165059	-0.1652898487353481	-90.28226623713145	0	0.9399999998679526	0	46.23263542075478	-10.4294013641474	0	60.4723838998767	1.055442205582857	-5.010110508202406	0	0	46.23263542075478	-10.4294013641474	0	60.4723838998767	1.055442205582857	-5.010110508202406	0	0	-0.1568897284613419	-0.90690026611643	0.6317873620020279	-0.4041859953765009	1.380000380828943	1.248238256647344	3.107902064424851	1.933046264992899	0	0	0	-10.99415015674192	0	88.13672643766458	1.933046264992899	0	0
0.1	0.001008120845766222	0.003543108563586311	-89.65564937922498	0	0.9399999998679526	0	46.23227895819414	-10.42897463119073	0	60.47227532696115	1.055440310628003	-5.010097444813455	0	0	46.23227895819414	-10.42897463119073	0	60.47227532696115	1.055440310628003	-5.010097444813455	0	0	-0.0005299255322769472	-0.0009486726051969035	0.001338255892963388	-0.3916606618246854	1.377431321737944	1.254104809846081	3.099658582514663	1.932655289346603	0	0	0	-10.99474944472877	0	88.13710325501705	1.932655289346603	0	0
